<svg xmlns="http://www.w3.org/2000/svg" viewBox="0 0 25.54 28.485">
  <g id="notification" transform="translate(-764.055 -2258)">
    <path id="Shape" d="M12.77,28.485a5.181,5.181,0,0,1-3.418-1.241,4.057,4.057,0,0,1-1.451-3H.971a.945.945,0,0,1-.948-.652.785.785,0,0,1,.505-.922,4.588,4.588,0,0,0,1.524-1.832C3.365,18.384,3.64,14.93,3.64,12.463a7.375,7.375,0,0,1,1.5-4.434A8.959,8.959,0,0,1,9.032,5.1V3.173A3.4,3.4,0,0,1,12.621,0h.3a3.4,3.4,0,0,1,3.59,3.173V5.1a8.962,8.962,0,0,1,3.877,2.916A7.378,7.378,0,0,1,21.9,12.431c0,.012,0,.022,0,.032,0,2.467.276,5.922,1.589,8.374a4.6,4.6,0,0,0,1.524,1.832.784.784,0,0,1,.505.922.945.945,0,0,1-.948.652H17.638a4.056,4.056,0,0,1-1.451,3A5.181,5.181,0,0,1,12.77,28.485ZM9.793,24.243a2.487,2.487,0,0,0,.9,1.818,3.257,3.257,0,0,0,4.162,0,2.486,2.486,0,0,0,.9-1.818ZM12.77,6.065c-3.991,0-7.238,2.87-7.238,6.4,0,3.993-.643,7.135-1.91,9.341a8.6,8.6,0,0,1-.5.768H22.414a8.7,8.7,0,0,1-.5-.768c-1.264-2.2-1.906-5.33-1.91-9.307,0-.01,0-.02,0-.031C20.008,8.937,16.761,6.065,12.77,6.065Zm-.148-4.393a1.611,1.611,0,0,0-1.7,1.5V4.559a10.356,10.356,0,0,1,3.695,0V3.173a1.611,1.611,0,0,0-1.7-1.5Z" transform="translate(764.055 2258)" fill="#1b1c1d"/>
  </g>
</svg>
