<?xml version="1.0" encoding="UTF-8"?>
<svg id="_레이어_1" data-name="레이어 1" xmlns="http://www.w3.org/2000/svg" viewBox="0 0 25.54 28.49">
  <defs>
    <style>
      .cls-1 {
        fill: #fff;
      }
    </style>
  </defs>
  <g id="notification">
    <path id="Shape" class="cls-1" d="M12.77,28.49c-1.25,.01-2.47-.43-3.42-1.24-.89-.75-1.42-1.84-1.45-3H.97c-.43,.02-.82-.25-.95-.65-.09-.39,.13-.79,.5-.92,.66-.47,1.19-1.1,1.52-1.83,1.31-2.45,1.59-5.91,1.59-8.37,0-1.6,.53-3.16,1.5-4.43,1-1.32,2.35-2.33,3.89-2.93v-1.93C9.15,1.31,10.75-.1,12.62,0h.3c1.87-.11,3.47,1.31,3.59,3.17v1.93c1.54,.6,2.88,1.61,3.88,2.92,.97,1.27,1.5,2.82,1.51,4.41v.03c0,2.47,.28,5.92,1.59,8.37,.34,.73,.86,1.37,1.52,1.83,.38,.13,.6,.53,.5,.92-.13,.41-.52,.67-.95,.65h-6.93c-.03,1.16-.56,2.25-1.45,3-.95,.81-2.17,1.25-3.42,1.24Zm-2.98-4.24c.03,.71,.36,1.37,.9,1.82,1.21,1,2.96,1,4.16,0,.54-.45,.87-1.11,.9-1.82h-5.96ZM12.77,6.07c-3.99,0-7.24,2.87-7.24,6.4,0,3.99-.64,7.14-1.91,9.34-.15,.26-.32,.52-.5,.77H22.41c-.18-.25-.35-.5-.5-.77-1.26-2.2-1.91-5.33-1.91-9.31v-.03c0-3.53-3.24-6.4-7.23-6.4Zm-.15-4.39c-.88-.05-1.64,.62-1.7,1.5v1.39c1.22-.22,2.47-.22,3.69,0v-1.39c-.06-.88-.82-1.55-1.7-1.5h-.3Z"/>
  </g>
</svg>