<svg xmlns="http://www.w3.org/2000/svg" width="23.607" height="28.485" viewBox="0 0 23.607 28.485">
  <g id="그룹_2324" data-name="그룹 2324" transform="translate(-368.393 -33.697)">
    <path id="Shape" d="M5.97,11.94a5.778,5.778,0,0,1-4.221-1.749A5.776,5.776,0,0,1,0,5.969,5.775,5.775,0,0,1,1.749,1.749,5.775,5.775,0,0,1,5.97,0a5.777,5.777,0,0,1,4.221,1.749A5.778,5.778,0,0,1,11.94,5.969a5.776,5.776,0,0,1-1.749,4.221A5.777,5.777,0,0,1,5.97,11.94Zm0-10.487A4.317,4.317,0,0,0,2.776,2.776,4.316,4.316,0,0,0,1.453,5.969,4.315,4.315,0,0,0,2.776,9.164,4.317,4.317,0,0,0,5.97,10.487,4.314,4.314,0,0,0,9.164,9.164a4.317,4.317,0,0,0,1.324-3.194A4.316,4.316,0,0,0,9.164,2.776,4.315,4.315,0,0,0,5.97,1.453Z" transform="translate(374.018 33.697)" fill="#1b1c1d"/>
    <path id="Shape-2" data-name="Shape" d="M18.615,15.106H4.991a4.931,4.931,0,0,1-3.6-1.354A4.937,4.937,0,0,1,0,10.081C0,9.5.019,8.914.056,8.355A17.847,17.847,0,0,1,.286,6.508a14.991,14.991,0,0,1,.44-1.856A9.329,9.329,0,0,1,1.464,2.92a6.519,6.519,0,0,1,1.114-1.5A4.888,4.888,0,0,1,4.179.382,5.367,5.367,0,0,1,6.223,0,2.033,2.033,0,0,1,7.329.485c.335.225.723.484,1.155.768a6.478,6.478,0,0,0,1.492.679,5.765,5.765,0,0,0,1.826.3,5.766,5.766,0,0,0,1.826-.3,6.514,6.514,0,0,0,1.493-.679c.437-.288.825-.547,1.154-.768A2.04,2.04,0,0,1,17.383,0a5.379,5.379,0,0,1,2.043.382,4.9,4.9,0,0,1,1.6,1.039,6.5,6.5,0,0,1,1.114,1.5,9.307,9.307,0,0,1,.739,1.731,14.906,14.906,0,0,1,.44,1.856,17.972,17.972,0,0,1,.23,1.846c.038.556.057,1.137.057,1.726a4.935,4.935,0,0,1-1.4,3.671A4.932,4.932,0,0,1,18.615,15.106ZM6.1,1.714h0a3.727,3.727,0,0,0-1.306.26,3.248,3.248,0,0,0-1.065.684,4.819,4.819,0,0,0-.819,1.108,7.6,7.6,0,0,0-.6,1.408A13.121,13.121,0,0,0,1.918,6.81,16.093,16.093,0,0,0,1.71,8.473c-.035.516-.052,1.057-.052,1.607a3.226,3.226,0,0,0,.88,2.43,3.32,3.32,0,0,0,2.453.882H18.615a3.317,3.317,0,0,0,2.452-.883,3.224,3.224,0,0,0,.881-2.43c0-.552-.018-1.092-.054-1.606a16.145,16.145,0,0,0-.207-1.664A13.212,13.212,0,0,0,21.3,5.174a7.57,7.57,0,0,0-.6-1.408,4.8,4.8,0,0,0-.819-1.108,3.251,3.251,0,0,0-1.065-.684,3.726,3.726,0,0,0-1.306-.26c-.056.031-.159.092-.329.206-.347.234-.729.488-1.167.778a8.1,8.1,0,0,1-1.875.865A7.367,7.367,0,0,1,11.8,3.95a7.362,7.362,0,0,1-2.336-.388A8.086,8.086,0,0,1,7.593,2.7c-.439-.29-.832-.552-1.168-.778-.13-.087-.243-.158-.329-.206Z" transform="translate(368.393 47.076)" fill="#1b1c1d"/>
  </g>
</svg>
