<svg id="그룹_1332" data-name="그룹 1332" xmlns="http://www.w3.org/2000/svg" xmlns:xlink="http://www.w3.org/1999/xlink" viewBox="0 0 27.136 28.484">
  <defs>
    <clipPath id="clip-path">
      <rect id="사각형_657" data-name="사각형 657" width="27.136" height="28.484" fill="none"/>
    </clipPath>
  </defs>
  <g id="그룹_1331" data-name="그룹 1331" clip-path="url(#clip-path)">
    <path id="패스_3562" data-name="패스 3562" d="M27.058,9.827a.822.822,0,0,0-.032-.76L24.778,5.175a.821.821,0,0,0-.642-.408,7.668,7.668,0,0,0-3.452.478L17.8,3.581A7.669,7.669,0,0,0,16.489.352.822.822,0,0,0,15.815,0h-4.5a.822.822,0,0,0-.674.352A7.669,7.669,0,0,0,9.334,3.581L6.451,5.245A7.66,7.66,0,0,0,3,4.767a.821.821,0,0,0-.642.408L.11,9.067a.822.822,0,0,0-.032.76,7.665,7.665,0,0,0,2.141,2.751v3.329a7.669,7.669,0,0,0-2.141,2.75.822.822,0,0,0,.032.76L2.357,23.31A.821.821,0,0,0,3,23.717a7.659,7.659,0,0,0,3.452-.478L9.334,24.9a7.673,7.673,0,0,0,1.312,3.229.822.822,0,0,0,.674.352h4.5a.822.822,0,0,0,.674-.352A7.673,7.673,0,0,0,17.8,24.9l2.883-1.664a7.662,7.662,0,0,0,3.452.478.821.821,0,0,0,.642-.408l2.248-3.893a.822.822,0,0,0,.032-.76,7.669,7.669,0,0,0-2.141-2.75V12.578a7.665,7.665,0,0,0,2.141-2.751m-3.143,7.4a4.437,4.437,0,0,1,1.466,1.752l-1.8,3.121a4.448,4.448,0,0,1-2.25-.393.821.821,0,0,0-1.014-.154l-3.787,2.186a.821.821,0,0,0-.374.955,4.438,4.438,0,0,1-.785,2.145h-3.6a4.438,4.438,0,0,1-.785-2.145.821.821,0,0,0-.374-.955L6.821,21.556a.821.821,0,0,0-1.014.154,4.413,4.413,0,0,1-2.25.393l-1.8-3.121A4.437,4.437,0,0,1,3.22,17.229a.821.821,0,0,0,.64-.8V12.056a.822.822,0,0,0-.64-.8A4.435,4.435,0,0,1,1.755,9.5l1.8-3.121a4.431,4.431,0,0,1,2.25.393.821.821,0,0,0,1.014.154l3.787-2.186a.822.822,0,0,0,.374-.955,4.438,4.438,0,0,1,.785-2.145h3.6a4.438,4.438,0,0,1,.785,2.145.821.821,0,0,0,.374.955l3.787,2.186a.821.821,0,0,0,1.014-.154,4.442,4.442,0,0,1,2.25-.393L25.38,9.5a4.435,4.435,0,0,1-1.466,1.752.822.822,0,0,0-.64.8v4.373a.821.821,0,0,0,.64.8" transform="translate(0)" fill="#2e2e2b"/>
    <path id="패스_3563" data-name="패스 3563" d="M36.932,32.684a7.532,7.532,0,1,0,7.532,7.531,7.54,7.54,0,0,0-7.532-7.531m0,13.421a5.889,5.889,0,1,1,5.889-5.889A5.9,5.9,0,0,1,36.932,46.1" transform="translate(-23.364 -25.974)" fill="#2e2e2b"/>
  </g>
</svg>
