<?xml version="1.0" encoding="UTF-8"?>
<svg id="_그룹_1332" data-name=" 그룹 1332" xmlns="http://www.w3.org/2000/svg" viewBox="0 0 27.14 28.47">
  <defs>
    <style>
      .cls-1 {
        fill: #fff;
      }
    </style>
  </defs>
  <g id="_그룹_1331" data-name=" 그룹 1331">
    <path id="_패스_3562" data-name=" 패스 3562" class="cls-1" d="M27.06,9.82c.11-.24,.1-.53-.03-.76l-2.25-3.89c-.13-.23-.37-.39-.64-.41-1.17-.11-2.35,.06-3.45,.48l-2.88-1.66c-.18-1.16-.63-2.27-1.31-3.23-.15-.22-.41-.35-.67-.35h-4.5c-.27,0-.52,.13-.67,.35-.68,.96-1.12,2.07-1.31,3.23l-2.88,1.66c-1.1-.42-2.28-.59-3.45-.48-.27,.02-.51,.18-.64,.41L.11,9.06c-.13,.23-.15,.52-.03,.76,.49,1.07,1.23,2.01,2.14,2.75v3.33c-.92,.74-1.65,1.68-2.14,2.75-.11,.24-.1,.53,.03,.76l2.25,3.89c.13,.23,.37,.38,.64,.41,1.17,.11,2.35-.06,3.45-.48l2.88,1.66c.18,1.16,.63,2.27,1.31,3.23,.15,.22,.41,.35,.67,.35h4.5c.27,0,.52-.13,.67-.35,.68-.96,1.12-2.07,1.31-3.23l2.88-1.66c1.1,.42,2.28,.59,3.45,.48,.27-.02,.51-.18,.64-.41l2.25-3.89c.13-.23,.15-.52,.03-.76-.49-1.07-1.23-2.01-2.14-2.75v-3.32c.92-.74,1.65-1.68,2.14-2.75m-3.14,7.4c.63,.45,1.14,1.05,1.47,1.75l-1.8,3.12c-.77,.07-1.55-.07-2.25-.39-.26-.28-.68-.35-1.01-.15l-3.79,2.19c-.33,.19-.49,.59-.37,.95-.07,.77-.34,1.51-.78,2.15h-3.6c-.44-.63-.71-1.37-.78-2.15,.11-.37-.04-.76-.37-.95l-3.79-2.18c-.33-.19-.75-.13-1.01,.15-.7,.33-1.48,.46-2.25,.39l-1.8-3.12c.33-.7,.83-1.31,1.46-1.75,.37-.08,.64-.42,.64-.8v-4.37c0-.38-.27-.72-.64-.8-.63-.45-1.14-1.05-1.47-1.76l1.8-3.12c.77-.07,1.55,.07,2.25,.39,.26,.28,.68,.35,1.01,.15l3.79-2.19c.33-.19,.49-.59,.37-.95,.07-.77,.34-1.51,.78-2.14h3.6c.44,.63,.71,1.37,.78,2.14-.11,.37,.04,.76,.37,.95l3.79,2.19c.33,.19,.75,.13,1.01-.15,.7-.32,1.48-.46,2.25-.39l1.8,3.12c-.33,.7-.83,1.31-1.47,1.75-.37,.08-.64,.42-.64,.8v4.37c0,.38,.27,.72,.64,.8"/>
    <path id="_패스_3563" data-name=" 패스 3563" class="cls-1" d="M13.57,6.7c-4.16,0-7.53,3.37-7.53,7.53s3.37,7.53,7.53,7.53,7.53-3.37,7.53-7.53h0c0-4.16-3.37-7.53-7.53-7.53m0,13.42c-3.25,0-5.89-2.64-5.89-5.89s2.64-5.89,5.89-5.89,5.89,2.64,5.89,5.89h0c0,3.25-2.64,5.88-5.89,5.88"/>
  </g>
</svg>